<?xml version="1.0" encoding="utf-8"?>
<!-- Generator: Adobe Illustrator 16.0.0, SVG Export Plug-In . SVG Version: 6.00 Build 0)  -->
<!DOCTYPE svg PUBLIC "-//W3C//DTD SVG 1.1//EN" "http://www.w3.org/Graphics/SVG/1.1/DTD/svg11.dtd">
<svg version="1.1" id="Layer_1" xmlns="http://www.w3.org/2000/svg" xmlns:xlink="http://www.w3.org/1999/xlink" x="0px" y="0px"
	 width="80.5px" height="24.178px" viewBox="0 0 80.5 24.178" enable-background="new 0 0 80.5 24.178" xml:space="preserve">
<g>
	<defs>
		<rect id="SVGID_1_" x="-4.25" y="-5.375" width="91" height="37"/>
	</defs>
	<clipPath id="SVGID_2_">
		<use xlink:href="#SVGID_1_"  overflow="visible"/>
	</clipPath>
	<path clip-path="url(#SVGID_2_)" fill="none" stroke="#000000" stroke-miterlimit="10" d="M77.048,20.521H3.324
		c-1.104,0-1.999-0.895-1.999-1.999V2.704c0-1.104,0.895-1.999,1.999-1.999h73.724c1.104,0,2,0.895,2,1.999v15.818
		C79.048,19.626,78.152,20.521,77.048,20.521z"/>
	<path clip-path="url(#SVGID_2_)" fill="#CD5599" d="M69.958,16.598h-3.422h-6.311H35.267v3.79c0,2.094,1.697,3.79,3.791,3.79
		h21.167h6.311h7.213v-3.791C73.749,18.294,72.052,16.598,69.958,16.598"/>
	<path clip-path="url(#SVGID_2_)" fill="#FFFFFF" d="M40.802,21.918c-0.026,0-0.045-0.016-0.055-0.046l-0.786-2.123
		c-0.009-0.03,0.003-0.045,0.037-0.045h0.575c0.031,0,0.052,0.015,0.061,0.045l0.43,1.314h0.01l0.411-1.314
		c0.009-0.03,0.029-0.045,0.059-0.045h0.567c0.034,0,0.046,0.015,0.037,0.045l-0.787,2.123c-0.01,0.03-0.027,0.046-0.055,0.046
		H40.802z"/>
	<path clip-path="url(#SVGID_2_)" fill="#FFFFFF" d="M42.55,19.352c-0.031,0-0.046-0.016-0.046-0.045v-0.449
		c0-0.031,0.015-0.046,0.046-0.046h0.549c0.03,0,0.045,0.015,0.045,0.046v0.449c0,0.029-0.015,0.045-0.045,0.045H42.55z
		 M42.55,21.918c-0.031,0-0.046-0.016-0.046-0.046v-2.123c0-0.03,0.015-0.045,0.046-0.045h0.549c0.03,0,0.045,0.015,0.045,0.045
		v2.123c0,0.03-0.015,0.046-0.045,0.046H42.55z"/>
	<path clip-path="url(#SVGID_2_)" fill="#FFFFFF" d="M44.59,21.968c-0.231,0-0.431-0.034-0.597-0.103s-0.303-0.149-0.409-0.24
		c-0.021-0.021-0.021-0.043,0-0.064l0.297-0.334c0.019-0.018,0.04-0.018,0.063,0c0.098,0.077,0.206,0.137,0.325,0.18
		c0.12,0.042,0.236,0.063,0.353,0.063s0.202-0.021,0.259-0.06c0.057-0.04,0.084-0.09,0.084-0.151c0-0.052-0.021-0.094-0.063-0.126
		c-0.041-0.031-0.126-0.054-0.253-0.065l-0.247-0.028c-0.234-0.024-0.414-0.092-0.538-0.205c-0.122-0.113-0.184-0.271-0.184-0.471
		c0-0.221,0.079-0.394,0.237-0.521c0.158-0.126,0.383-0.189,0.672-0.189c0.188,0,0.359,0.026,0.513,0.077
		c0.152,0.053,0.281,0.118,0.383,0.197c0.022,0.021,0.024,0.044,0.006,0.069l-0.256,0.315c-0.019,0.021-0.041,0.024-0.064,0.01
		c-0.076-0.05-0.166-0.092-0.27-0.127s-0.214-0.053-0.329-0.053c-0.095,0-0.165,0.018-0.212,0.051
		c-0.045,0.033-0.067,0.077-0.067,0.133c0,0.052,0.02,0.092,0.06,0.121s0.122,0.049,0.246,0.062l0.243,0.027
		c0.263,0.024,0.451,0.096,0.564,0.215c0.114,0.119,0.172,0.271,0.172,0.458c-0.003,0.229-0.09,0.412-0.26,0.551
		C45.15,21.898,44.907,21.968,44.59,21.968"/>
	<path clip-path="url(#SVGID_2_)" fill="#FFFFFF" d="M46.077,19.352c-0.031,0-0.047-0.016-0.047-0.045v-0.449
		c0-0.031,0.016-0.046,0.047-0.046h0.549c0.03,0,0.045,0.015,0.045,0.046v0.449c0,0.029-0.015,0.045-0.045,0.045H46.077z
		 M46.077,21.918c-0.031,0-0.047-0.016-0.047-0.046v-2.123c0-0.03,0.016-0.045,0.047-0.045h0.549c0.03,0,0.045,0.015,0.045,0.045
		v2.123c0,0.03-0.015,0.046-0.045,0.046H46.077z"/>
	<path clip-path="url(#SVGID_2_)" fill="#FFFFFF" d="M48.003,21.945c-0.259,0-0.441-0.06-0.548-0.179
		c-0.108-0.119-0.162-0.305-0.162-0.558v-1.007c0-0.019-0.009-0.028-0.027-0.028h-0.138c-0.029,0-0.045-0.014-0.045-0.045v-0.38
		c0-0.03,0.016-0.045,0.045-0.045h0.138c0.019,0,0.027-0.01,0.027-0.027v-0.595c0-0.031,0.016-0.046,0.046-0.046h0.549
		c0.031,0,0.046,0.015,0.046,0.046v0.595c0,0.018,0.009,0.027,0.027,0.027h0.283c0.03,0,0.046,0.015,0.046,0.045v0.38
		c0,0.031-0.016,0.045-0.046,0.045h-0.283c-0.019,0-0.027,0.01-0.027,0.028v0.982c0,0.083,0.015,0.141,0.046,0.173
		c0.03,0.032,0.082,0.048,0.155,0.048h0.109c0.03,0,0.046,0.016,0.046,0.045v0.449c0,0.03-0.016,0.046-0.046,0.046H48.003z"/>
	<path clip-path="url(#SVGID_2_)" fill="#FFFFFF" d="M50.11,21.918c-0.03,0-0.045-0.016-0.045-0.046v-0.16h-0.005
		c-0.053,0.076-0.125,0.138-0.22,0.185c-0.095,0.048-0.215,0.071-0.361,0.071c-0.187,0-0.343-0.045-0.472-0.135
		c-0.128-0.09-0.221-0.222-0.278-0.396c-0.027-0.088-0.048-0.179-0.06-0.272c-0.013-0.093-0.019-0.211-0.019-0.354
		c0-0.146,0.006-0.266,0.019-0.356c0.012-0.092,0.032-0.182,0.06-0.271c0.058-0.177,0.15-0.31,0.278-0.397
		c0.129-0.089,0.285-0.133,0.472-0.133c0.146,0,0.267,0.023,0.361,0.071c0.095,0.047,0.167,0.108,0.22,0.185h0.005v-1.057
		c0-0.03,0.015-0.045,0.045-0.045h0.549c0.031,0,0.047,0.015,0.047,0.045v3.02c0,0.03-0.016,0.046-0.047,0.046H50.11z
		 M49.686,21.429c0.174,0,0.286-0.079,0.338-0.238c0.016-0.043,0.026-0.093,0.032-0.148c0.007-0.057,0.01-0.135,0.01-0.231
		c0-0.098-0.003-0.175-0.01-0.23c-0.006-0.057-0.017-0.106-0.032-0.149c-0.048-0.158-0.161-0.237-0.338-0.237
		c-0.181,0-0.295,0.079-0.343,0.237c-0.016,0.043-0.026,0.093-0.033,0.149c-0.006,0.056-0.009,0.133-0.009,0.23
		c0,0.097,0.003,0.175,0.009,0.231c0.007,0.056,0.018,0.105,0.033,0.148C49.394,21.35,49.509,21.429,49.686,21.429"/>
	<path clip-path="url(#SVGID_2_)" fill="#FFFFFF" d="M52.622,21.918c-0.03,0-0.046-0.016-0.046-0.046v-0.158h-0.004
		c-0.058,0.076-0.133,0.137-0.223,0.184s-0.204,0.07-0.346,0.07c-0.121,0-0.229-0.021-0.321-0.062
		c-0.094-0.041-0.171-0.099-0.234-0.172c-0.063-0.072-0.109-0.159-0.142-0.261c-0.032-0.101-0.048-0.21-0.048-0.329v-1.396
		c0-0.03,0.015-0.045,0.046-0.045h0.549c0.031,0,0.046,0.015,0.046,0.046v1.274c0,0.119,0.028,0.217,0.084,0.291
		c0.057,0.075,0.142,0.113,0.255,0.113c0.109,0,0.193-0.037,0.251-0.11s0.087-0.171,0.087-0.294V19.75
		c0-0.031,0.016-0.046,0.046-0.046h0.549c0.03,0,0.046,0.015,0.046,0.045v2.123c0,0.03-0.016,0.046-0.046,0.046H52.622z"/>
	<path clip-path="url(#SVGID_2_)" fill="#FFFFFF" d="M55.02,21.968c-0.146,0-0.267-0.023-0.361-0.071
		c-0.095-0.047-0.167-0.108-0.22-0.185h-0.005v0.16c0,0.03-0.016,0.046-0.045,0.046H53.84c-0.031,0-0.047-0.016-0.047-0.046v-3.02
		c0-0.03,0.016-0.045,0.047-0.045h0.549c0.029,0,0.045,0.015,0.045,0.045v1.057h0.005c0.053-0.076,0.125-0.138,0.22-0.185
		c0.095-0.048,0.215-0.071,0.361-0.071c0.187,0,0.343,0.044,0.472,0.133c0.128,0.088,0.221,0.221,0.279,0.397
		c0.026,0.089,0.047,0.179,0.059,0.271c0.013,0.091,0.019,0.21,0.019,0.356c0,0.144-0.006,0.262-0.019,0.354
		c-0.012,0.094-0.032,0.185-0.059,0.272c-0.059,0.174-0.151,0.306-0.279,0.396C55.362,21.923,55.206,21.968,55.02,21.968
		 M54.813,21.429c0.177,0,0.292-0.079,0.343-0.238c0.016-0.043,0.026-0.093,0.032-0.148c0.007-0.057,0.01-0.135,0.01-0.231
		c0-0.098-0.003-0.175-0.01-0.23c-0.006-0.057-0.017-0.106-0.032-0.149c-0.048-0.158-0.163-0.237-0.343-0.237
		c-0.177,0-0.29,0.079-0.338,0.237c-0.016,0.043-0.026,0.093-0.032,0.149c-0.007,0.056-0.01,0.133-0.01,0.23
		c0,0.097,0.003,0.175,0.01,0.231c0.006,0.056,0.017,0.105,0.032,0.148C54.526,21.35,54.64,21.429,54.813,21.429"/>
	<path clip-path="url(#SVGID_2_)" fill="#FFFFFF" d="M57.613,21.918c-0.031,0-0.045-0.016-0.045-0.046v-0.146h-0.005
		c-0.059,0.073-0.137,0.132-0.234,0.176s-0.222,0.066-0.375,0.066c-0.098,0-0.191-0.013-0.281-0.038
		c-0.089-0.026-0.168-0.067-0.235-0.122c-0.066-0.055-0.121-0.125-0.16-0.21c-0.04-0.086-0.059-0.188-0.059-0.307
		c0-0.244,0.084-0.424,0.254-0.54c0.169-0.116,0.39-0.174,0.665-0.174h0.394c0.019,0,0.027-0.009,0.027-0.026v-0.083
		c0-0.104-0.031-0.18-0.094-0.229c-0.063-0.049-0.183-0.073-0.359-0.073c-0.112,0-0.21,0.014-0.293,0.041
		c-0.082,0.027-0.148,0.062-0.201,0.101c-0.024,0.019-0.044,0.015-0.059-0.009l-0.207-0.361c-0.015-0.028-0.011-0.049,0.015-0.064
		c0.094-0.067,0.21-0.12,0.345-0.16c0.137-0.039,0.296-0.06,0.479-0.06c0.18,0,0.332,0.017,0.457,0.048
		c0.125,0.032,0.227,0.081,0.304,0.146c0.079,0.065,0.135,0.149,0.17,0.249c0.035,0.101,0.054,0.22,0.054,0.357v1.418
		c0,0.03-0.017,0.046-0.047,0.046H57.613z M57.146,21.487c0.274,0,0.412-0.102,0.412-0.307v-0.15c0-0.019-0.009-0.027-0.027-0.027
		H57.22c-0.263,0-0.393,0.084-0.393,0.252C56.827,21.41,56.934,21.487,57.146,21.487"/>
	<path clip-path="url(#SVGID_2_)" fill="#FFFFFF" d="M58.775,19.352c-0.03,0-0.046-0.016-0.046-0.045v-0.449
		c0-0.031,0.016-0.046,0.046-0.046h0.549c0.03,0,0.046,0.015,0.046,0.046v0.449c0,0.029-0.016,0.045-0.046,0.045H58.775z
		 M58.775,21.918c-0.03,0-0.046-0.016-0.046-0.046v-2.123c0-0.03,0.016-0.045,0.046-0.045h0.549c0.03,0,0.046,0.015,0.046,0.045
		v2.123c0,0.03-0.016,0.046-0.046,0.046H58.775z"/>
	<path clip-path="url(#SVGID_2_)" fill="#FFFFFF" d="M59.932,21.323c0-0.03,0.016-0.046,0.047-0.046h0.548
		c0.03,0,0.046,0.016,0.046,0.046v0.549c0,0.03-0.016,0.046-0.046,0.046h-0.548c-0.031,0-0.047-0.016-0.047-0.046V21.323z"/>
	<path clip-path="url(#SVGID_2_)" fill="#FFFFFF" d="M62.045,21.968c-0.234,0-0.436-0.053-0.604-0.158
		c-0.167-0.104-0.284-0.261-0.351-0.468c-0.025-0.067-0.043-0.144-0.054-0.229c-0.012-0.086-0.016-0.187-0.016-0.303
		s0.004-0.217,0.016-0.302c0.011-0.085,0.028-0.161,0.054-0.228c0.066-0.208,0.184-0.365,0.351-0.47
		c0.169-0.105,0.37-0.158,0.604-0.158c0.192,0,0.36,0.039,0.503,0.117c0.143,0.077,0.256,0.178,0.335,0.299
		c0.015,0.024,0.012,0.046-0.01,0.064l-0.398,0.261c-0.027,0.018-0.05,0.015-0.068-0.009c-0.05-0.067-0.1-0.116-0.152-0.146
		c-0.055-0.03-0.12-0.046-0.199-0.046c-0.086,0-0.158,0.02-0.218,0.06c-0.06,0.039-0.102,0.099-0.125,0.178
		c-0.016,0.046-0.026,0.098-0.033,0.155c-0.006,0.059-0.009,0.134-0.009,0.225c0,0.092,0.003,0.166,0.009,0.225
		c0.007,0.058,0.018,0.109,0.033,0.155c0.023,0.079,0.065,0.139,0.125,0.179c0.06,0.039,0.132,0.06,0.218,0.06
		c0.079,0,0.145-0.016,0.199-0.046c0.053-0.031,0.103-0.079,0.152-0.146c0.019-0.024,0.041-0.027,0.068-0.01l0.398,0.262
		c0.021,0.018,0.024,0.039,0.01,0.063c-0.079,0.122-0.192,0.222-0.335,0.3S62.237,21.968,62.045,21.968"/>
	<path clip-path="url(#SVGID_2_)" fill="#FFFFFF" d="M64.255,21.968c-0.234,0-0.437-0.053-0.608-0.16
		c-0.171-0.106-0.287-0.261-0.353-0.462c-0.024-0.079-0.042-0.161-0.054-0.244c-0.013-0.084-0.019-0.181-0.019-0.291
		c0-0.109,0.006-0.206,0.019-0.29c0.012-0.084,0.029-0.165,0.054-0.245c0.065-0.201,0.182-0.355,0.353-0.462
		c0.172-0.106,0.374-0.16,0.608-0.16c0.235,0,0.438,0.054,0.608,0.16c0.171,0.106,0.289,0.261,0.353,0.462
		c0.024,0.08,0.042,0.161,0.055,0.245c0.012,0.084,0.019,0.181,0.019,0.29c0,0.11-0.007,0.207-0.019,0.291
		c-0.013,0.083-0.03,0.165-0.055,0.244c-0.063,0.201-0.182,0.355-0.353,0.462C64.693,21.915,64.49,21.968,64.255,21.968
		 M64.255,21.429c0.177,0,0.291-0.079,0.344-0.238c0.015-0.052,0.025-0.104,0.031-0.158c0.006-0.053,0.009-0.127,0.009-0.222
		c0-0.094-0.003-0.168-0.009-0.222c-0.006-0.053-0.017-0.105-0.031-0.158c-0.053-0.158-0.167-0.237-0.344-0.237
		s-0.291,0.079-0.343,0.237c-0.016,0.053-0.025,0.105-0.032,0.158c-0.006,0.054-0.009,0.128-0.009,0.222
		c0,0.095,0.003,0.169,0.009,0.222c0.007,0.054,0.017,0.106,0.032,0.158C63.964,21.35,64.078,21.429,64.255,21.429"/>
	<path clip-path="url(#SVGID_2_)" fill="#FFFFFF" d="M68.463,21.918c-0.03,0-0.046-0.016-0.046-0.046v-1.271
		c0-0.122-0.028-0.22-0.087-0.293c-0.058-0.073-0.145-0.11-0.261-0.11c-0.109,0-0.194,0.037-0.254,0.11
		c-0.059,0.073-0.089,0.171-0.089,0.293v1.271c0,0.03-0.016,0.046-0.046,0.046h-0.549c-0.03,0-0.046-0.016-0.046-0.046v-1.271
		c0-0.122-0.028-0.22-0.084-0.293c-0.057-0.073-0.143-0.11-0.259-0.11c-0.11,0-0.195,0.037-0.256,0.11
		c-0.062,0.073-0.092,0.171-0.092,0.293v1.271c0,0.03-0.016,0.046-0.046,0.046h-0.549c-0.03,0-0.046-0.016-0.046-0.046v-2.123
		c0-0.03,0.016-0.045,0.046-0.045h0.549c0.03,0,0.046,0.016,0.046,0.046v0.157h0.004c0.053-0.069,0.124-0.129,0.218-0.177
		c0.093-0.048,0.211-0.072,0.354-0.072c0.265,0,0.464,0.093,0.595,0.28h0.005c0.082-0.09,0.18-0.158,0.292-0.208
		c0.113-0.048,0.248-0.072,0.403-0.072c0.258,0,0.456,0.076,0.59,0.229s0.201,0.35,0.201,0.594v1.392
		c0,0.03-0.016,0.046-0.045,0.046H68.463z"/>
	<polygon clip-path="url(#SVGID_2_)" fill="#010202" points="7.695,14.004 7.695,5.464 8.606,5.464 8.606,13.189 12.972,13.189 
		12.972,14.004 	"/>
	<rect x="14.679" y="5.464" clip-path="url(#SVGID_2_)" fill="#010202" width="0.911" height="8.54"/>
	<polygon clip-path="url(#SVGID_2_)" fill="#010202" points="20.703,14.004 19.959,14.004 17.153,5.464 18.113,5.464 20.332,12.373 
		22.551,5.464 23.51,5.464 	"/>
	<polygon clip-path="url(#SVGID_2_)" fill="#010202" points="25.085,14.004 25.085,5.464 30.386,5.464 30.386,6.28 25.997,6.28 
		25.997,9.29 29.738,9.29 29.738,10.106 25.997,10.106 25.997,13.189 30.386,13.189 30.386,14.004 	"/>
	<rect x="35.274" y="5.464" clip-path="url(#SVGID_2_)" fill="#010202" width="0.911" height="8.54"/>
	<polygon clip-path="url(#SVGID_2_)" fill="#010202" points="41.261,6.28 41.261,14.004 40.349,14.004 40.349,6.28 37.879,6.28 
		37.879,5.465 43.731,5.465 43.731,6.28 	"/>
	<polygon clip-path="url(#SVGID_2_)" fill="#010202" points="53.764,14.004 49.229,7.155 49.229,14.004 48.318,14.004 48.318,5.464 
		49.182,5.464 53.716,12.289 53.716,5.464 54.627,5.464 54.627,14.004 	"/>
	<path clip-path="url(#SVGID_2_)" fill="#010202" d="M61.875,13.189c-0.576,0.575-1.332,0.887-2.184,0.887s-1.606-0.313-2.183-0.887
		c-0.804-0.805-0.804-1.644-0.804-3.455s0-2.65,0.804-3.454c0.576-0.576,1.331-0.888,2.183-0.888s1.607,0.312,2.184,0.888
		c0.803,0.804,0.803,1.643,0.803,3.454S62.678,12.384,61.875,13.189 M61.167,6.82c-0.372-0.384-0.911-0.612-1.476-0.612
		c-0.563,0-1.103,0.228-1.475,0.612c-0.54,0.551-0.6,1.127-0.6,2.914s0.06,2.362,0.6,2.915c0.372,0.383,0.911,0.612,1.475,0.612
		c0.564,0,1.104-0.229,1.476-0.612c0.54-0.553,0.6-1.128,0.6-2.915S61.707,7.371,61.167,6.82"/>
	<polygon clip-path="url(#SVGID_2_)" fill="#010202" points="71.528,14.004 70.678,14.004 68.782,7.168 66.888,14.004 
		66.036,14.004 63.853,5.464 64.824,5.464 66.491,12.348 68.375,5.464 69.19,5.464 71.073,12.348 72.74,5.464 73.712,5.464 	"/>
</g>
</svg>
